<?xml version="1.0" encoding="UTF-8"?><svg xmlns="http://www.w3.org/2000/svg" xmlns:xlink="http://www.w3.org/1999/xlink" fill-opacity="1" color-rendering="auto" color-interpolation="auto" text-rendering="auto" stroke="black" stroke-linecap="square" width="1210" stroke-miterlimit="10" shape-rendering="auto" stroke-opacity="1" fill="black" stroke-dasharray="none" font-weight="normal" stroke-width="1" height="290" font-family="'Dialog'" font-style="normal" stroke-linejoin="miter" font-size="12px" stroke-dashoffset="0" image-rendering="auto">
  <!--Generated by ySVG 2.5-->
  <defs id="genericDefs"/>
  <g>
    <defs id="defs1">
      <clipPath clipPathUnits="userSpaceOnUse" id="clipPath1">
        <path d="M0 0 L1210 0 L1210 290 L0 290 L0 0 Z"/>
      </clipPath>
      <clipPath clipPathUnits="userSpaceOnUse" id="clipPath2">
        <path d="M20 -87 L1230 -87 L1230 203 L20 203 L20 -87 Z"/>
      </clipPath>
    </defs>
    <g fill="white" text-rendering="geometricPrecision" shape-rendering="geometricPrecision" transform="translate(-20,87)" stroke="white">
      <rect x="20" width="1210" height="290" y="-87" clip-path="url(#clipPath2)" stroke="none"/>
    </g>
    <g fill="white" text-rendering="geometricPrecision" shape-rendering="geometricPrecision" transform="matrix(1,0,0,1,-20,87)" stroke="white">
      <rect x="535" y="0" clip-path="url(#clipPath2)" width="40" rx="4" ry="4" height="48" stroke="none"/>
    </g>
    <g text-rendering="geometricPrecision" stroke-miterlimit="1.45" shape-rendering="geometricPrecision" transform="matrix(1,0,0,1,-20,87)" stroke-linecap="butt">
      <rect x="535" y="0" clip-path="url(#clipPath2)" fill="none" width="40" rx="4" ry="4" height="48"/>
      <text x="543.668" xml:space="preserve" y="28.7139" clip-path="url(#clipPath2)" font-family="sans-serif" stroke="none">INIT</text>
    </g>
    <g fill="white" text-rendering="geometricPrecision" shape-rendering="geometricPrecision" transform="matrix(1,0,0,1,-20,87)" stroke="white">
      <rect x="35" y="139.7012" clip-path="url(#clipPath2)" width="210" rx="4" ry="4" height="48" stroke="none"/>
    </g>
    <g text-rendering="geometricPrecision" stroke-miterlimit="1.45" shape-rendering="geometricPrecision" transform="matrix(1,0,0,1,-20,87)" stroke-linecap="butt">
      <rect x="35" y="139.7012" clip-path="url(#clipPath2)" fill="none" width="210" rx="4" ry="4" height="48"/>
      <text x="80.6299" xml:space="preserve" y="168.415" clip-path="url(#clipPath2)" font-family="sans-serif" stroke="none">Start_Button_Controle</text>
    </g>
    <g fill="white" text-rendering="geometricPrecision" shape-rendering="geometricPrecision" transform="matrix(1,0,0,1,-20,87)" stroke="white">
      <rect x="375" y="139.7012" clip-path="url(#clipPath2)" width="120" rx="4" ry="4" height="48" stroke="none"/>
    </g>
    <g text-rendering="geometricPrecision" stroke-miterlimit="1.45" shape-rendering="geometricPrecision" transform="matrix(1,0,0,1,-20,87)" stroke-linecap="butt">
      <rect x="375" y="139.7012" clip-path="url(#clipPath2)" fill="none" width="120" rx="4" ry="4" height="48"/>
      <text x="400.6494" xml:space="preserve" y="168.415" clip-path="url(#clipPath2)" font-family="sans-serif" stroke="none">Lights_alarm</text>
    </g>
    <g fill="white" text-rendering="geometricPrecision" shape-rendering="geometricPrecision" transform="matrix(1,0,0,1,-20,87)" stroke="white">
      <rect x="275" y="139.7012" clip-path="url(#clipPath2)" width="70" rx="4" ry="4" height="48" stroke="none"/>
    </g>
    <g text-rendering="geometricPrecision" stroke-miterlimit="1.45" shape-rendering="geometricPrecision" transform="matrix(1,0,0,1,-20,87)" stroke-linecap="butt">
      <rect x="275" y="139.7012" clip-path="url(#clipPath2)" fill="none" width="70" rx="4" ry="4" height="48"/>
      <text x="287.9863" xml:space="preserve" y="168.415" clip-path="url(#clipPath2)" font-family="sans-serif" stroke="none">Cooking</text>
    </g>
    <g fill="white" text-rendering="geometricPrecision" shape-rendering="geometricPrecision" transform="matrix(1,0,0,1,-20,87)" stroke="white">
      <rect x="525" y="139.7012" clip-path="url(#clipPath2)" width="60" rx="4" ry="4" height="48" stroke="none"/>
    </g>
    <g text-rendering="geometricPrecision" stroke-miterlimit="1.45" shape-rendering="geometricPrecision" transform="matrix(1,0,0,1,-20,87)" stroke-linecap="butt">
      <rect x="525" y="139.7012" clip-path="url(#clipPath2)" fill="none" width="60" rx="4" ry="4" height="48"/>
      <text x="536.9971" xml:space="preserve" y="168.415" clip-path="url(#clipPath2)" font-family="sans-serif" stroke="none">Clocks</text>
    </g>
    <g fill="white" text-rendering="geometricPrecision" shape-rendering="geometricPrecision" transform="matrix(1,0,0,1,-20,87)" stroke="white">
      <rect x="615" y="139.7012" clip-path="url(#clipPath2)" width="120" rx="4" ry="4" height="48" stroke="none"/>
    </g>
    <g text-rendering="geometricPrecision" stroke-miterlimit="1.45" shape-rendering="geometricPrecision" transform="matrix(1,0,0,1,-20,87)" stroke-linecap="butt">
      <rect x="615" y="139.7012" clip-path="url(#clipPath2)" fill="none" width="120" rx="4" ry="4" height="48"/>
      <text x="639.3223" xml:space="preserve" y="168.415" clip-path="url(#clipPath2)" font-family="sans-serif" stroke="none">Display_work</text>
    </g>
    <g fill="white" text-rendering="geometricPrecision" shape-rendering="geometricPrecision" transform="matrix(1,0,0,1,-20,87)" stroke="white">
      <rect x="765" y="139.7012" clip-path="url(#clipPath2)" width="240" rx="4" ry="4" height="48" stroke="none"/>
    </g>
    <g text-rendering="geometricPrecision" stroke-miterlimit="1.45" shape-rendering="geometricPrecision" transform="matrix(1,0,0,1,-20,87)" stroke-linecap="butt">
      <rect x="765" y="139.7012" clip-path="url(#clipPath2)" fill="none" width="240" rx="4" ry="4" height="48"/>
      <text x="810.624" xml:space="preserve" y="168.415" clip-path="url(#clipPath2)" font-family="sans-serif" stroke="none">ChangeTimeButtonControle</text>
    </g>
    <g fill="white" text-rendering="geometricPrecision" shape-rendering="geometricPrecision" transform="matrix(1,0,0,1,-20,87)" stroke="white">
      <rect x="1035" y="139.7012" clip-path="url(#clipPath2)" width="180" rx="4" ry="4" height="48" stroke="none"/>
    </g>
    <g text-rendering="geometricPrecision" stroke-miterlimit="1.45" shape-rendering="geometricPrecision" transform="matrix(1,0,0,1,-20,87)" stroke-linecap="butt">
      <rect x="1035" y="139.7012" clip-path="url(#clipPath2)" fill="none" width="180" rx="4" ry="4" height="48"/>
      <text x="1071.9697" xml:space="preserve" y="168.415" clip-path="url(#clipPath2)" font-family="sans-serif" stroke="none">HourButtonControle</text>
      <path fill="none" d="M534.9539 24 L487.8184 24 L487.8184 -49.8506 L555 -49.8506 L555 -8.0487" clip-path="url(#clipPath2)"/>
      <path d="M555 -0.0487 L560 -12.0487 L555 -9.0487 L550 -12.0487 Z" clip-path="url(#clipPath2)" stroke="none"/>
      <text x="499.6592" xml:space="preserve" y="-57.2861" clip-path="url(#clipPath2)" font-family="sans-serif" stroke="none">stop</text>
      <path fill="none" d="M537.8571 48 L537.8571 58.5 L140 58.5 L140 131.6615" clip-path="url(#clipPath2)"/>
      <path d="M140 139.6615 L145 127.6615 L140 130.6615 L135 127.6615 Z" clip-path="url(#clipPath2)" stroke="none"/>
      <text x="151.3311" xml:space="preserve" y="79.7139" clip-path="url(#clipPath2)" font-family="sans-serif" stroke="none">start</text>
      <path fill="none" d="M549.2857 48 L549.2857 80.5 L435 80.5 L435 131.6723" clip-path="url(#clipPath2)"/>
      <path d="M435 139.6723 L440 127.6723 L435 130.6723 L430 127.6723 Z" clip-path="url(#clipPath2)" stroke="none"/>
      <text x="444.3311" xml:space="preserve" y="101.7139" clip-path="url(#clipPath2)" font-family="sans-serif" stroke="none">start</text>
      <path fill="none" d="M543.5714 48 L543.5714 69.5 L310 69.5 L310 131.6669" clip-path="url(#clipPath2)"/>
      <path d="M310 139.6669 L315 127.6669 L310 130.6669 L305 127.6669 Z" clip-path="url(#clipPath2)" stroke="none"/>
      <text x="321.3311" xml:space="preserve" y="89.7139" clip-path="url(#clipPath2)" font-family="sans-serif" stroke="none">start</text>
      <path fill="none" d="M555 48 L555 131.6564" clip-path="url(#clipPath2)"/>
      <path d="M555 139.6564 L560 127.6564 L555 130.6564 L550 127.6564 Z" clip-path="url(#clipPath2)" stroke="none"/>
      <text x="559.3311" xml:space="preserve" y="121.7139" clip-path="url(#clipPath2)" font-family="sans-serif" stroke="none">start</text>
      <path fill="none" d="M560.7143 48 L560.7143 80.5 L675 80.5 L675 131.6723" clip-path="url(#clipPath2)"/>
      <path d="M675 139.6723 L680 127.6723 L675 130.6723 L670 127.6723 Z" clip-path="url(#clipPath2)" stroke="none"/>
      <text x="645.3311" xml:space="preserve" y="99.7139" clip-path="url(#clipPath2)" font-family="sans-serif" stroke="none">start</text>
      <path fill="none" d="M566.4286 48 L566.4286 69.5 L885 69.5 L885 131.6669" clip-path="url(#clipPath2)"/>
      <path d="M885 139.6669 L890 127.6669 L885 130.6669 L880 127.6669 Z" clip-path="url(#clipPath2)" stroke="none"/>
      <text x="854.3311" xml:space="preserve" y="88.7139" clip-path="url(#clipPath2)" font-family="sans-serif" stroke="none">start</text>
      <path fill="none" d="M572.1429 48 L572.1429 58.5 L1125 58.5 L1125 131.6615" clip-path="url(#clipPath2)"/>
      <path d="M1125 139.6615 L1130 127.6615 L1125 130.6615 L1120 127.6615 Z" clip-path="url(#clipPath2)" stroke="none"/>
      <text x="1094.3311" xml:space="preserve" y="78.7139" clip-path="url(#clipPath2)" font-family="sans-serif" stroke="none">start</text>
    </g>
  </g>
</svg>
